<svg width="20" height="20" viewBox="0 0 20 20" fill="none" xmlns="http://www.w3.org/2000/svg">
<path fill-rule="evenodd" clip-rule="evenodd" d="M9.9999 19.5999C12.546 19.5999 14.9878 18.5885 16.7881 16.7881C18.5885 14.9878 19.5999 12.546 19.5999 9.9999C19.5999 7.45382 18.5885 5.01203 16.7881 3.21168C14.9878 1.41133 12.546 0.399902 9.9999 0.399902C7.45382 0.399902 5.01203 1.41133 3.21168 3.21168C1.41133 5.01203 0.399902 7.45382 0.399902 9.9999C0.399902 12.546 1.41133 14.9878 3.21168 16.7881C5.01203 18.5885 7.45382 19.5999 9.9999 19.5999ZM11.1999 5.1999C11.1999 4.88164 11.0735 4.57642 10.8484 4.35137C10.6234 4.12633 10.3182 3.9999 9.9999 3.9999C9.68164 3.9999 9.37642 4.12633 9.15137 4.35137C8.92633 4.57642 8.7999 4.88164 8.7999 5.1999V9.9999C8.79997 10.3181 8.92644 10.6233 9.1515 10.8483L12.5451 14.2431C12.6566 14.3546 12.789 14.443 12.9346 14.5034C13.0803 14.5637 13.2364 14.5948 13.3941 14.5948C13.5518 14.5948 13.7079 14.5637 13.8536 14.5034C13.9993 14.443 14.1316 14.3546 14.2431 14.2431C14.3546 14.1316 14.443 13.9993 14.5034 13.8536C14.5637 13.7079 14.5948 13.5518 14.5948 13.3941C14.5948 13.2364 14.5637 13.0803 14.5034 12.9346C14.443 12.789 14.3546 12.6566 14.2431 12.5451L11.1999 9.5031V5.1999Z" fill="#919BA2"/>
</svg>
