<svg width="57" height="56" viewBox="0 0 57 56" fill="none" xmlns="http://www.w3.org/2000/svg">
<path d="M52.5 28C52.5 31.1517 51.8792 34.2726 50.6731 37.1844C49.467 40.0962 47.6992 42.742 45.4706 44.9706C43.242 47.1992 40.5962 48.967 37.6844 50.1731C34.7726 51.3792 31.6517 52 28.5 52C25.3483 52 22.2274 51.3792 19.3156 50.1731C16.4038 48.967 13.758 47.1992 11.5294 44.9706C9.30083 42.742 7.533 40.0962 6.32689 37.1844C5.12078 34.2726 4.5 31.1517 4.5 28C4.5 24.8483 5.12078 21.7274 6.32689 18.8156C7.53301 15.9038 9.30083 13.258 11.5294 11.0294C13.758 8.80083 16.4038 7.033 19.3156 5.82689C22.2274 4.62078 25.3483 4 28.5 4C31.6517 4 34.7726 4.62078 37.6844 5.82689C40.5962 7.03301 43.242 8.80083 45.4706 11.0294C47.6992 13.258 49.467 15.9038 50.6731 18.8156C51.8792 21.7274 52.5 24.8483 52.5 28L52.5 28Z" stroke="#E4E6E8" stroke-width="8"/>
<path d="M52.5 28C52.5 28.0503 52.4998 28.1005 52.4995 28.1508" stroke="url(#paint0_angular_205_3237)" stroke-width="8"/>
<defs>
<radialGradient id="paint0_angular_205_3237" cx="0" cy="0" r="1" gradientUnits="userSpaceOnUse" gradientTransform="translate(28.5 28) rotate(90) scale(24)">
<stop stop-color="white"/>
<stop offset="1" stop-color="#1DC880"/>
</radialGradient>
</defs>
</svg>
