<svg width="18" height="19" viewBox="0 0 18 19" fill="none" xmlns="http://www.w3.org/2000/svg">
<path fill-rule="evenodd" clip-rule="evenodd" d="M0.800293 3.0001C0.800293 2.36358 1.05315 1.75313 1.50324 1.30304C1.95332 0.852954 2.56377 0.600098 3.20029 0.600098H15.2003C15.8368 0.600098 16.4473 0.852954 16.8973 1.30304C17.3474 1.75313 17.6003 2.36358 17.6003 3.0001V12.6001C17.6003 13.2366 17.3474 13.8471 16.8973 14.2972C16.4473 14.7472 15.8368 15.0001 15.2003 15.0001H12.5363L12.6839 15.5869L13.6487 16.5517C13.8165 16.7195 13.9307 16.9333 13.977 17.1661C14.0233 17.3988 13.9995 17.64 13.9087 17.8593C13.8179 18.0785 13.6641 18.2659 13.4668 18.3978C13.2696 18.5296 13.0376 18.6 12.8003 18.6001H5.60029C5.36299 18.6 5.13103 18.5296 4.93374 18.3978C4.73645 18.2659 4.58268 18.0785 4.49188 17.8593C4.40108 17.64 4.37731 17.3988 4.42359 17.1661C4.46987 16.9333 4.58412 16.7195 4.75189 16.5517L5.71669 15.5869L5.86429 15.0001H3.20029C2.56377 15.0001 1.95332 14.7472 1.50324 14.2972C1.05315 13.8471 0.800293 13.2366 0.800293 12.6001V3.0001ZM7.72549 11.4001H3.20029V3.0001H15.2003V11.4001H7.72549Z" fill="#919BA2"/>
</svg>
