<svg width="15" height="19" viewBox="0 0 15 19" fill="none" xmlns="http://www.w3.org/2000/svg">
<path fill-rule="evenodd" clip-rule="evenodd" d="M0.399902 3.0001C0.399902 2.36358 0.652759 1.75313 1.10285 1.30304C1.55293 0.852954 2.16338 0.600098 2.7999 0.600098C2.7999 1.55488 3.17919 2.47055 3.85432 3.14568C4.52945 3.82081 5.44512 4.2001 6.3999 4.2001H8.7999C9.75468 4.2001 10.6704 3.82081 11.3455 3.14568C12.0206 2.47055 12.3999 1.55488 12.3999 0.600098C13.0364 0.600098 13.6469 0.852954 14.097 1.30304C14.547 1.75313 14.7999 2.36358 14.7999 3.0001V16.2001C14.7999 16.8366 14.547 17.4471 14.097 17.8972C13.6469 18.3472 13.0364 18.6001 12.3999 18.6001H2.7999C2.16338 18.6001 1.55293 18.3472 1.10285 17.8972C0.652759 17.4471 0.399902 16.8366 0.399902 16.2001V3.0001ZM12.0483 9.8485C12.2669 9.62218 12.3878 9.31905 12.3851 9.00442C12.3824 8.68978 12.2562 8.38881 12.0337 8.16632C11.8112 7.94383 11.5102 7.81762 11.1956 7.81489C10.8809 7.81216 10.5778 7.93311 10.3515 8.1517L6.3999 12.1033L4.8483 10.5517C4.62198 10.3331 4.31886 10.2122 4.00422 10.2149C3.68958 10.2176 3.38861 10.3438 3.16612 10.5663C2.94363 10.7888 2.81743 11.0898 2.81469 11.4044C2.81196 11.7191 2.93291 12.0222 3.1515 12.2485L5.5515 14.6485C5.77654 14.8735 6.08171 14.9998 6.3999 14.9998C6.7181 14.9998 7.02327 14.8735 7.2483 14.6485L12.0483 9.8485Z" fill="#919BA2"/>
</svg>
