<svg width="22" height="22" viewBox="0 0 22 22" fill="none" xmlns="http://www.w3.org/2000/svg">
<path fill-rule="evenodd" clip-rule="evenodd" d="M10.9996 9.90904C11.8676 9.90904 12.7001 9.56424 13.3138 8.95048C13.9276 8.33673 14.2724 7.50429 14.2724 6.63631C14.2724 5.76833 13.9276 4.9359 13.3138 4.32215C12.7001 3.70839 11.8676 3.36359 10.9996 3.36359C10.1317 3.36359 9.29923 3.70839 8.68548 4.32215C8.07172 4.9359 7.72692 5.76833 7.72692 6.63631C7.72692 7.50429 8.07172 8.33673 8.68548 8.95048C9.29923 9.56424 10.1317 9.90904 10.9996 9.90904ZM3.36328 19.7272C3.36328 18.7244 3.5608 17.7314 3.94456 16.8049C4.32833 15.8784 4.89082 15.0366 5.59992 14.3275C6.30902 13.6184 7.15085 13.0559 8.07734 12.6721C9.00382 12.2884 9.99682 12.0909 10.9996 12.0909C12.0025 12.0909 12.9955 12.2884 13.922 12.6721C14.8484 13.0559 15.6903 13.6184 16.3994 14.3275C17.1085 15.0366 17.671 15.8784 18.0547 16.8049C18.4385 17.7314 18.636 18.7244 18.636 19.7272H3.36328Z" fill="#C7D4DD"/>
</svg>
