<svg width="21" height="21" viewBox="0 0 21 21" fill="none" xmlns="http://www.w3.org/2000/svg">
<path fill-rule="evenodd" clip-rule="evenodd" d="M6.80643 1.29315C6.724 0.985715 6.52281 0.723613 6.24713 0.564507C5.97146 0.405401 5.64386 0.362325 5.33643 0.444754C5.02899 0.527183 4.76688 0.728366 4.60778 1.00404C4.44867 1.27972 4.4056 1.60731 4.48802 1.91475L4.79883 3.07395C4.88125 3.38139 5.08244 3.6435 5.35812 3.8026C5.63379 3.96171 5.96139 4.00478 6.26883 3.92235C6.57626 3.83993 6.83837 3.63874 6.99747 3.36306C7.15658 3.08738 7.19966 2.75979 7.11723 2.45235L6.80643 1.29315ZM1.71483 4.68795C1.56233 4.64638 1.40313 4.63535 1.24636 4.65548C1.08959 4.67562 0.938343 4.72652 0.801303 4.80528C0.664263 4.88403 0.544132 4.98908 0.447808 5.1144C0.351483 5.23971 0.280864 5.38282 0.240006 5.5355C0.199148 5.68819 0.188856 5.84744 0.20972 6.00412C0.230585 6.16079 0.282195 6.3118 0.361587 6.44847C0.44098 6.58514 0.54659 6.70478 0.672352 6.80052C0.798114 6.89626 0.941551 6.96621 1.09442 7.00635L2.25363 7.31715C2.56051 7.39774 2.88682 7.35351 3.16118 7.19414C3.43554 7.03476 3.63561 6.77322 3.71763 6.46671C3.79965 6.1602 3.75694 5.83369 3.59885 5.55859C3.44076 5.28349 3.18014 5.0822 2.87402 4.99875L1.71483 4.68795ZM12.2916 4.00515C12.403 3.89366 12.4914 3.76132 12.5517 3.61568C12.6119 3.47003 12.6429 3.31395 12.6429 3.15633C12.6428 2.99871 12.6117 2.84265 12.5513 2.69705C12.491 2.55145 12.4025 2.41917 12.291 2.30775C12.1795 2.19634 12.0472 2.10798 11.9015 2.04771C11.7559 1.98745 11.5998 1.95646 11.4422 1.95651C11.2846 1.95657 11.1285 1.98767 10.9829 2.04804C10.8373 2.10841 10.705 2.19686 10.5936 2.30835L9.74523 3.15675C9.63373 3.26825 9.54529 3.40061 9.48495 3.54628C9.42461 3.69195 9.39356 3.84808 9.39356 4.00575C9.39356 4.16343 9.42461 4.31956 9.48495 4.46523C9.54529 4.6109 9.63373 4.74326 9.74523 4.85475C9.85672 4.96625 9.98908 5.05469 10.1347 5.11503C10.2804 5.17537 10.4366 5.20642 10.5942 5.20642C10.7519 5.20642 10.908 5.17537 11.0537 5.11503C11.1994 5.05469 11.3317 4.96625 11.4432 4.85475L12.2916 4.00515ZM3.80642 12.4916L4.65483 11.6432C4.88015 11.4181 5.00687 11.1128 5.00709 10.7944C5.00732 10.476 4.88103 10.1705 4.65603 9.94515C4.43102 9.71983 4.12571 9.59311 3.80727 9.59289C3.48884 9.59266 3.18335 9.71894 2.95802 9.94395L2.10843 10.7924C1.88326 11.0175 1.75676 11.3229 1.75676 11.6414C1.75676 11.9598 1.88326 12.2652 2.10843 12.4904C2.33359 12.7155 2.63899 12.842 2.95742 12.842C3.27586 12.842 3.58126 12.7155 3.80642 12.4904V12.4916ZM7.64643 6.28635C7.42835 6.19906 7.18946 6.1777 6.95935 6.2249C6.72925 6.2721 6.51806 6.3858 6.35196 6.55189C6.18587 6.71799 6.07217 6.92918 6.02497 7.15928C5.97777 7.38938 5.99914 7.62828 6.08643 7.84635L10.8864 19.8464C10.9724 20.0611 11.1187 20.2465 11.3076 20.38C11.4965 20.5136 11.7199 20.5897 11.9511 20.5993C12.1823 20.6088 12.4112 20.5513 12.6105 20.4336C12.8097 20.316 12.9707 20.1433 13.074 19.9364L14.73 16.6256L18.3516 20.2496C18.5768 20.4746 18.8821 20.6009 19.2004 20.6008C19.5188 20.6007 19.824 20.4741 20.049 20.249C20.274 20.0238 20.4004 19.7185 20.4003 19.4001C20.4002 19.0818 20.2736 18.7766 20.0484 18.5516L16.4256 14.9276L19.7376 13.2728C19.9442 13.1691 20.1165 13.0081 20.2337 12.8089C20.351 12.6098 20.4083 12.381 20.3986 12.1501C20.389 11.9192 20.3129 11.6959 20.1795 11.5072C20.046 11.3185 19.8609 11.1724 19.6464 11.0864L7.64643 6.28635Z" fill="#919BA2"/>
</svg>
