<svg width="16" height="16" viewBox="0 0 16 16" fill="none" xmlns="http://www.w3.org/2000/svg">
<path fill-rule="evenodd" clip-rule="evenodd" d="M1.15213 1.1515C1.37716 0.926537 1.68233 0.800158 2.00052 0.800158C2.31872 0.800158 2.62389 0.926537 2.84892 1.1515L8.00052 6.3031L13.1521 1.1515C13.2628 1.03689 13.3952 0.945471 13.5416 0.88258C13.688 0.81969 13.8455 0.786586 14.0048 0.785202C14.1642 0.783817 14.3222 0.814179 14.4697 0.874516C14.6171 0.934853 14.7511 1.02396 14.8638 1.13663C14.9765 1.2493 15.0656 1.38328 15.1259 1.53076C15.1862 1.67823 15.2166 1.83625 15.2152 1.99558C15.2138 2.15492 15.1807 2.31238 15.1178 2.45879C15.055 2.60519 14.9635 2.73761 14.8489 2.8483L9.69732 7.9999L14.8489 13.1515C15.0675 13.3778 15.1885 13.6809 15.1857 13.9956C15.183 14.3102 15.0568 14.6112 14.8343 14.8337C14.6118 15.0562 14.3108 15.1824 13.9962 15.1851C13.6816 15.1878 13.3784 15.0669 13.1521 14.8483L8.00052 9.6967L2.84892 14.8483C2.6226 15.0669 2.31948 15.1878 2.00484 15.1851C1.69021 15.1824 1.38923 15.0562 1.16674 14.8337C0.944253 14.6112 0.81805 14.3102 0.815316 13.9956C0.812582 13.6809 0.933535 13.3778 1.15213 13.1515L6.30373 7.9999L1.15213 2.8483C0.92716 2.62327 0.800781 2.3181 0.800781 1.9999C0.800781 1.68171 0.92716 1.37654 1.15213 1.1515Z" fill="#474E53"/>
</svg>
