<svg width="20" height="20" viewBox="0 0 20 20" fill="none" xmlns="http://www.w3.org/2000/svg">
<path fill-rule="evenodd" clip-rule="evenodd" d="M0.999005 3.99901C4.47317 3.95581 7.81358 2.65316 10.3998 0.333008C12.9859 2.65359 16.3263 3.95668 19.8006 4.00021C19.9326 4.78021 19.9998 5.58421 19.9998 6.40141C19.9998 12.6714 15.9918 18.0054 10.3998 19.9818C4.80781 18.0042 0.799805 12.6702 0.799805 6.40021C0.799805 5.58181 0.868205 4.78021 0.999005 3.99901ZM14.8482 8.44861C15.0668 8.22228 15.1877 7.91916 15.185 7.60453C15.1823 7.28989 15.0561 6.98891 14.8336 6.76643C14.6111 6.54394 14.3101 6.41773 13.9955 6.415C13.6809 6.41226 13.3777 6.53322 13.1514 6.75181L9.19981 10.7034L7.6482 9.15181C7.42188 8.93322 7.11876 8.81226 6.80412 8.815C6.48949 8.81773 6.18851 8.94394 5.96602 9.16642C5.74353 9.38891 5.61733 9.68989 5.6146 10.0045C5.61186 10.3192 5.73282 10.6223 5.95141 10.8486L8.35141 13.2486C8.57644 13.4736 8.88161 13.6 9.19981 13.6C9.518 13.6 9.82317 13.4736 10.0482 13.2486L14.8482 8.44861Z" fill="#919BA2"/>
</svg>
