<svg width="20" height="26" viewBox="0 0 20 26" fill="none" xmlns="http://www.w3.org/2000/svg">
<path fill-rule="evenodd" clip-rule="evenodd" d="M0.400146 3.39995C0.400146 2.55126 0.737288 1.73733 1.3374 1.13721C1.93752 0.537093 2.75145 0.199951 3.60015 0.199951H10.9377C11.7864 0.200132 12.6002 0.537393 13.2001 1.13755L18.6625 6.59995C19.2627 7.19993 19.6 8.01373 19.6001 8.86235V22.6C19.6001 23.4486 19.263 24.2626 18.6629 24.8627C18.0628 25.4628 17.2488 25.8 16.4001 25.8H3.60015C2.75145 25.8 1.93752 25.4628 1.3374 24.8627C0.737288 24.2626 0.400146 23.4486 0.400146 22.6V3.39995ZM6.00041 8.99992C5.64679 8.99992 5.30765 9.14039 5.0576 9.39044C4.80755 9.64049 4.66707 9.97963 4.66707 10.3333C4.66707 10.6869 4.80755 11.026 5.0576 11.2761C5.30765 11.5261 5.64679 11.6666 6.00041 11.6666H14.0004C14.354 11.6666 14.6932 11.5261 14.9432 11.2761C15.1933 11.026 15.3337 10.6869 15.3337 10.3333C15.3337 9.97963 15.1933 9.64049 14.9432 9.39044C14.6932 9.14039 14.354 8.99992 14.0004 8.99992H6.00041ZM14.0004 16.9999H6.00041C5.64679 16.9999 5.30765 16.8594 5.0576 16.6094C4.80755 16.3593 4.66707 16.0202 4.66707 15.6666C4.66707 15.313 4.80755 14.9738 5.0576 14.7238C5.30765 14.4737 5.64679 14.3333 6.00041 14.3333H14.0004C14.354 14.3333 14.6932 14.4737 14.9432 14.7238C15.1933 14.9738 15.3337 15.313 15.3337 15.6666C15.3337 16.0202 15.1933 16.3593 14.9432 16.6094C14.6932 16.8594 14.354 16.9999 14.0004 16.9999Z" fill="#919BA2"/>
</svg>
